  0
SECTION
  2
BLOCKS
  0
ENDSEC
  0
SECTION
  2
ENTITIES
  0
LINE
  8
0
 10
-17
 20
0
 11
17
 21
0
  0
LINE
  8
0
 10
17
 20
0
 11
17
 21
-5
  0
LINE
  8
0
 10
17
 20
-5
 11
27
 21
-5
  0
LINE
  8
0
 10
27
 20
-5
 11
27
 21
0
  0
LINE
  8
0
 10
27
 20
0
 11
27.7841
 21
0.0385284
  0
LINE
  8
0
 10
27.7841
 20
0.0385284
 11
28.5607
 21
0.153717
  0
LINE
  8
0
 10
28.5607
 20
0.153717
 11
29.3223
 21
0.344482
  0
LINE
  8
0
 10
29.3223
 20
0.344482
 11
30.0615
 21
0.608963
  0
LINE
  8
0
 10
30.0615
 20
0.608963
 11
30.7712
 21
0.944626
  0
LINE
  8
0
 10
30.7712
 20
0.944626
 11
31.4446
 21
1.34824
  0
LINE
  8
0
 10
31.4446
 20
1.34824
 11
32.0751
 21
1.81592
  0
LINE
  8
0
 10
32.0751
 20
1.81592
 11
32.6569
 21
2.34314
  0
LINE
  8
0
 10
32.6569
 20
2.34314
 11
33.1841
 21
2.92485
  0
LINE
  8
0
 10
33.1841
 20
2.92485
 11
33.6518
 21
3.55544
  0
LINE
  8
0
 10
33.6518
 20
3.55544
 11
34.0554
 21
4.22882
  0
LINE
  8
0
 10
34.0554
 20
4.22882
 11
34.391
 21
4.93854
  0
LINE
  8
0
 10
34.391
 20
4.93854
 11
34.6555
 21
5.67772
  0
LINE
  8
0
 10
34.6555
 20
5.67772
 11
34.8463
 21
6.43927
  0
LINE
  8
0
 10
34.8463
 20
6.43927
 11
34.9615
 21
7.21587
  0
LINE
  8
0
 10
34.9615
 20
7.21587
 11
35
 21
8
  0
LINE
  8
0
 10
35
 20
8
 11
35
 21
30
  0
LINE
  8
0
 10
35
 20
30
 11
34.9615
 21
30.7841
  0
LINE
  8
0
 10
34.9615
 20
30.7841
 11
34.8463
 21
31.5607
  0
LINE
  8
0
 10
34.8463
 20
31.5607
 11
34.6555
 21
32.3223
  0
LINE
  8
0
 10
34.6555
 20
32.3223
 11
34.391
 21
33.0615
  0
LINE
  8
0
 10
34.391
 20
33.0615
 11
34.0554
 21
33.7712
  0
LINE
  8
0
 10
34.0554
 20
33.7712
 11
33.6518
 21
34.4446
  0
LINE
  8
0
 10
33.6518
 20
34.4446
 11
33.1841
 21
35.0751
  0
LINE
  8
0
 10
33.1841
 20
35.0751
 11
32.6569
 21
35.6569
  0
LINE
  8
0
 10
32.6569
 20
35.6569
 11
32.0751
 21
36.1841
  0
LINE
  8
0
 10
32.0751
 20
36.1841
 11
31.4446
 21
36.6518
  0
LINE
  8
0
 10
31.4446
 20
36.6518
 11
30.7712
 21
37.0554
  0
LINE
  8
0
 10
30.7712
 20
37.0554
 11
30.0615
 21
37.391
  0
LINE
  8
0
 10
30.0615
 20
37.391
 11
29.3223
 21
37.6555
  0
LINE
  8
0
 10
29.3223
 20
37.6555
 11
28.5607
 21
37.8463
  0
LINE
  8
0
 10
28.5607
 20
37.8463
 11
27.7841
 21
37.9615
  0
LINE
  8
0
 10
27.7841
 20
37.9615
 11
27
 21
38
  0
LINE
  8
0
 10
27
 20
38
 11
-27
 21
38
  0
LINE
  8
0
 10
-27
 20
38
 11
-27.7841
 21
37.9615
  0
LINE
  8
0
 10
-27.7841
 20
37.9615
 11
-28.5607
 21
37.8463
  0
LINE
  8
0
 10
-28.5607
 20
37.8463
 11
-29.3223
 21
37.6555
  0
LINE
  8
0
 10
-29.3223
 20
37.6555
 11
-30.0615
 21
37.391
  0
LINE
  8
0
 10
-30.0615
 20
37.391
 11
-30.7712
 21
37.0554
  0
LINE
  8
0
 10
-30.7712
 20
37.0554
 11
-31.4446
 21
36.6518
  0
LINE
  8
0
 10
-31.4446
 20
36.6518
 11
-32.0751
 21
36.1841
  0
LINE
  8
0
 10
-32.0751
 20
36.1841
 11
-32.6569
 21
35.6569
  0
LINE
  8
0
 10
-32.6569
 20
35.6569
 11
-33.1841
 21
35.0751
  0
LINE
  8
0
 10
-33.1841
 20
35.0751
 11
-33.6518
 21
34.4446
  0
LINE
  8
0
 10
-33.6518
 20
34.4446
 11
-34.0554
 21
33.7712
  0
LINE
  8
0
 10
-34.0554
 20
33.7712
 11
-34.391
 21
33.0615
  0
LINE
  8
0
 10
-34.391
 20
33.0615
 11
-34.6555
 21
32.3223
  0
LINE
  8
0
 10
-34.6555
 20
32.3223
 11
-34.8463
 21
31.5607
  0
LINE
  8
0
 10
-34.8463
 20
31.5607
 11
-34.9615
 21
30.7841
  0
LINE
  8
0
 10
-34.9615
 20
30.7841
 11
-35
 21
30
  0
LINE
  8
0
 10
-35
 20
30
 11
-35
 21
8
  0
LINE
  8
0
 10
-35
 20
8
 11
-34.9615
 21
7.21587
  0
LINE
  8
0
 10
-34.9615
 20
7.21587
 11
-34.8463
 21
6.43927
  0
LINE
  8
0
 10
-34.8463
 20
6.43927
 11
-34.6555
 21
5.67772
  0
LINE
  8
0
 10
-34.6555
 20
5.67772
 11
-34.391
 21
4.93854
  0
LINE
  8
0
 10
-34.391
 20
4.93854
 11
-34.0554
 21
4.22882
  0
LINE
  8
0
 10
-34.0554
 20
4.22882
 11
-33.6518
 21
3.55544
  0
LINE
  8
0
 10
-33.6518
 20
3.55544
 11
-33.1841
 21
2.92485
  0
LINE
  8
0
 10
-33.1841
 20
2.92485
 11
-32.6569
 21
2.34314
  0
LINE
  8
0
 10
-32.6569
 20
2.34314
 11
-32.0751
 21
1.81592
  0
LINE
  8
0
 10
-32.0751
 20
1.81592
 11
-31.4446
 21
1.34824
  0
LINE
  8
0
 10
-31.4446
 20
1.34824
 11
-30.7712
 21
0.944626
  0
LINE
  8
0
 10
-30.7712
 20
0.944626
 11
-30.0615
 21
0.608963
  0
LINE
  8
0
 10
-30.0615
 20
0.608963
 11
-29.3223
 21
0.344482
  0
LINE
  8
0
 10
-29.3223
 20
0.344482
 11
-28.5607
 21
0.153717
  0
LINE
  8
0
 10
-28.5607
 20
0.153717
 11
-27.7841
 21
0.0385284
  0
LINE
  8
0
 10
-27.7841
 20
0.0385284
 11
-27
 21
0
  0
LINE
  8
0
 10
-27
 20
0
 11
-27
 21
-5
  0
LINE
  8
0
 10
-27
 20
-5
 11
-17
 21
-5
  0
LINE
  8
0
 10
-17
 20
-5
 11
-17
 21
0
  0
ENDSEC
  0
SECTION
  2
OBJECTS
  0
DICTIONARY
  0
ENDSEC
  0
EOF
